# xmcd
#
# Track frame offsets: 
#        150
#        26965
#        40442
#        55842
#        83807
#        119160
#        132392
#        145042
#        163402
#
# Disc length: 2409 seconds
#
# Revision: 2
# Processed by: cddbd v1.4PL0 Copyright (c) Steve Scherf et al.
# Submitted via: ExactAudioCopy v0.95a1
#
DISCID=88096709
DTITLE=Stevie Ray Vaughan and Double Trouble - Live Austin Texas
DYEAR=1992
DGENRE=Blues
TTITLE0=In The Open
TTITLE1=Slide Thing
TTITLE2=They Call Me Guitar Hurricane
TTITLE3=All Your Love I Miss Loving
TTITLE4=Tin Pan Alley
TTITLE5=Love Struck Baby
TTITLE6=Tell Me
TTITLE7=Shake For Me
TTITLE8=Live Another Day
EXTD=
EXTT0=
EXTT1=
EXTT2=
EXTT3=
EXTT4=
EXTT5=
EXTT6=
EXTT7=
EXTT8=
PLAYORDER=
